<svg version="1.2" xmlns="http://www.w3.org/2000/svg" viewBox="0 0 459 531" width="459" height="531"><style></style><path fill-rule="evenodd" d="m37 231v150l157 92-1-69-94-59-2-114-92-56 1-33 94 53 125-74 130 75 96-53-1 33-95 58-1 115-129 76v104l-220-133v-183zm289-17l-97-55-99 55 1 115 97 55v-114zm-2 39l-65 36 2 75 63-35z"/><path  d="m418 231l31-19v186l-186 109v-36l153-90z"/><path  d="m257 66l11-7v-22l140 81-31 19z"/><path fill-rule="evenodd" d="m184 37v23l11 6-119 71-31-18zm42-35l30 18v33l-30 18-30-18-1-33zm-20 23v22l21 12 19-13-1-21-19-11z"/><path  d="m184 37v23l11 6-119 71-31-18zm42-36l30 19"/></svg>